<svg xmlns="http://www.w3.org/2000/svg" xmlns:xlink="http://www.w3.org/1999/xlink" width="500" zoomAndPan="magnify" viewBox="0 0 375 374.999991" height="500" preserveAspectRatio="xMidYMid meet" version="1.0"><defs><g/><clipPath id="984638809c"><path d="M 64.183594 145.910156 L 310.816406 145.910156 L 310.816406 147.507812 L 64.183594 147.507812 Z M 309.183594 147.507812 L 310.816406 147.507812 L 310.816406 227.457031 L 309.183594 227.457031 Z M 64.183594 147.507812 L 65.785156 147.507812 L 65.785156 227.457031 L 64.183594 227.457031 Z M 64.183594 227.457031 L 310.816406 227.457031 L 310.816406 229.089844 L 64.183594 229.089844 Z M 64.183594 227.457031 " clip-rule="nonzero"/></clipPath><clipPath id="5b44ce28dd"><path d="M 270.109375 140.144531 L 300.839844 140.144531 L 300.839844 175.136719 L 270.109375 175.136719 Z M 270.109375 140.144531 " clip-rule="nonzero"/></clipPath></defs><g clip-path="url(#984638809c)"><path fill="#ffffff" d="M 64.183594 145.910156 L 310.804688 145.910156 L 310.804688 229.089844 L 64.183594 229.089844 Z M 64.183594 145.910156 " fill-opacity="1" fill-rule="nonzero"/></g><g fill="#ffffff" fill-opacity="1"><g transform="translate(75.543118, 205.340187)"><g><path d="M 21.960938 0 L 29.972656 -32.589844 L 37.929688 0 L 47.683594 0 L 59.019531 -41.578125 L 51.769531 -41.578125 L 42.667969 -7.03125 L 34.058594 -41.578125 L 25.832031 -41.578125 L 17.273438 -7.085938 L 8.121094 -41.578125 L 0.871094 -41.578125 L 12.261719 0 Z M 21.960938 0 "/></g></g></g><g fill="#ffffff" fill-opacity="1"><g transform="translate(135.484441, 205.340187)"><g><path d="M 12.207031 0.597656 C 14.929688 0.597656 17.328125 0.164062 19.238281 -1.089844 C 20.4375 -1.851562 21.472656 -2.941406 22.289062 -4.359375 L 22.289062 0 L 28.71875 0 L 28.71875 -16.511719 C 28.71875 -20 28.71875 -24.796875 25.339844 -27.957031 C 23.050781 -30.027344 19.726562 -31.007812 16.183594 -31.007812 C 10.246094 -31.007812 4.523438 -27.738281 3.433594 -20.871094 L 9.863281 -20.871094 C 10.464844 -23.976562 13.078125 -25.832031 16.128906 -25.832031 C 18.09375 -25.832031 19.617188 -25.230469 20.707031 -24.140625 C 21.742188 -23.050781 22.289062 -21.527344 22.34375 -19.453125 L 12.699219 -17.65625 C 9.917969 -17.113281 7.464844 -16.347656 5.613281 -14.984375 C 3.542969 -13.460938 2.289062 -11.28125 2.289062 -8.285156 C 2.289062 -2.617188 6.375 0.597656 12.207031 0.597656 Z M 13.625 -4.632812 C 10.734375 -4.632812 8.71875 -5.996094 8.71875 -8.445312 C 8.71875 -9.589844 9.101562 -10.464844 9.808594 -11.171875 C 10.734375 -12.042969 12.097656 -12.589844 14.277344 -13.023438 L 22.398438 -14.605469 C 22.398438 -10.246094 21.417969 -7.355469 17.820312 -5.558594 C 16.566406 -4.960938 15.148438 -4.632812 13.625 -4.632812 Z M 13.625 -4.632812 "/></g></g></g><g fill="#ffffff" fill-opacity="1"><g transform="translate(167.416819, 205.340187)"><g><path d="M 18.527344 0 L 18.527344 -5.394531 L 15.3125 -5.394531 C 12.644531 -5.394531 12.371094 -6.867188 12.371094 -8.828125 L 12.371094 -25.121094 L 18.582031 -25.121094 L 18.582031 -30.460938 L 12.371094 -30.460938 L 12.371094 -41.578125 L 5.941406 -41.578125 L 5.941406 -30.460938 L 1.363281 -30.460938 L 1.363281 -25.121094 L 5.941406 -25.121094 L 5.941406 -7.03125 C 5.941406 -1.796875 8.554688 0 13.078125 0 Z M 18.527344 0 "/></g></g></g><g fill="#ffffff" fill-opacity="1"><g transform="translate(187.905851, 205.340187)"><g><path d="M 16.347656 0.597656 C 24.085938 0.597656 28.609375 -3.269531 28.609375 -9.046875 C 28.609375 -15.96875 22.289062 -17.21875 16.894531 -18.203125 C 12.96875 -18.964844 9.535156 -19.617188 9.535156 -22.398438 C 9.535156 -24.523438 11.554688 -25.832031 14.824219 -25.832031 C 18.148438 -25.832031 20.871094 -24.359375 21.796875 -20.925781 L 27.847656 -20.925781 C 26.757812 -27.300781 21.742188 -31.007812 14.824219 -31.007812 C 8.554688 -31.007812 3.269531 -28.175781 3.269531 -22.070312 C 3.269531 -15.421875 9.375 -14.222656 14.605469 -13.1875 C 18.636719 -12.371094 22.234375 -11.609375 22.234375 -8.5 C 22.234375 -5.996094 19.78125 -4.632812 16.347656 -4.632812 C 12.097656 -4.632812 9.375 -6.648438 8.5 -10.082031 L 2.015625 -10.082031 C 3.050781 -2.832031 9.15625 0.597656 16.347656 0.597656 Z M 16.347656 0.597656 "/></g></g></g><g fill="#ffffff" fill-opacity="1"><g transform="translate(218.911864, 205.340187)"><g><path d="M 14.003906 0.597656 C 17.546875 0.597656 20.054688 -0.816406 22.5625 -4.140625 L 22.5625 0 L 28.992188 0 L 28.992188 -30.460938 L 22.5625 -30.460938 L 22.5625 -15.75 C 22.5625 -11.0625 21.960938 -8.445312 20.4375 -6.757812 C 19.292969 -5.503906 17.710938 -4.796875 15.53125 -4.796875 C 13.625 -4.796875 12.261719 -5.285156 11.390625 -6.265625 C 10.300781 -7.464844 9.808594 -9.425781 9.808594 -12.589844 L 9.808594 -30.460938 L 3.378906 -30.460938 L 3.378906 -12.644531 C 3.378906 -8.554688 3.707031 -6.375 4.6875 -4.414062 C 6.320312 -1.089844 9.425781 0.597656 14.003906 0.597656 Z M 14.003906 0.597656 "/></g></g></g><g fill="#ffffff" fill-opacity="1"><g transform="translate(251.389164, 205.340187)"><g><path d="M 19.074219 -31.0625 C 15.257812 -31.0625 12.644531 -29.917969 9.972656 -26.320312 L 9.972656 -30.460938 L 3.542969 -30.460938 L 3.542969 11.117188 L 9.972656 11.117188 L 9.972656 -4.140625 C 12.699219 -0.492188 15.367188 0.546875 19.074219 0.546875 C 27.085938 0.546875 32.480469 -5.941406 32.480469 -15.257812 C 32.480469 -24.578125 27.085938 -31.0625 19.074219 -31.0625 Z M 17.765625 -25.503906 C 22.832031 -25.503906 25.992188 -21.144531 25.992188 -15.257812 C 25.992188 -9.375 22.832031 -5.011719 17.765625 -5.011719 C 12.804688 -5.011719 9.320312 -9.265625 9.320312 -15.257812 C 9.320312 -21.253906 12.804688 -25.503906 17.765625 -25.503906 Z M 17.765625 -25.503906 "/></g></g></g><g fill="#ffffff" fill-opacity="1"><g transform="translate(286.264128, 205.340187)"><g><path d="M 6.703125 0.597656 C 8.828125 0.597656 10.570312 -1.253906 10.570312 -3.433594 C 10.570312 -5.558594 8.828125 -7.355469 6.703125 -7.355469 C 4.46875 -7.355469 2.617188 -5.613281 2.617188 -3.433594 C 2.617188 -1.199219 4.46875 0.597656 6.703125 0.597656 Z M 6.703125 0.597656 "/></g></g></g><g clip-path="url(#5b44ce28dd)"><path fill="#ffffff" d="M 293.609375 156.761719 C 293.433594 156.761719 293.292969 156.621094 293.292969 156.445312 C 293.292969 154.894531 292.273438 153.632812 291.015625 153.632812 C 289.761719 153.632812 288.742188 154.894531 288.742188 156.445312 C 288.742188 156.621094 288.597656 156.761719 288.421875 156.761719 C 288.246094 156.761719 288.105469 156.621094 288.105469 156.445312 C 288.105469 154.542969 289.410156 152.996094 291.015625 152.996094 C 292.621094 152.996094 293.929688 154.542969 293.929688 156.445312 C 293.929688 156.621094 293.785156 156.761719 293.609375 156.761719 Z M 282.167969 159.691406 C 282.34375 159.691406 282.488281 159.835938 282.488281 160.011719 C 282.488281 161.933594 283.761719 163.5 285.328125 163.5 C 286.894531 163.5 288.167969 161.933594 288.167969 160.011719 C 288.167969 159.835938 288.3125 159.691406 288.488281 159.691406 C 288.664062 159.691406 288.804688 159.835938 288.804688 160.011719 C 288.804688 162.285156 287.246094 164.136719 285.328125 164.136719 C 283.410156 164.136719 281.851562 162.285156 281.851562 160.011719 C 281.851562 159.835938 281.992188 159.691406 282.167969 159.691406 Z M 277.128906 156.445312 C 277.128906 156.621094 276.988281 156.761719 276.8125 156.761719 C 276.636719 156.761719 276.492188 156.621094 276.492188 156.445312 C 276.492188 154.542969 277.800781 152.996094 279.40625 152.996094 C 281.011719 152.996094 282.316406 154.542969 282.316406 156.445312 C 282.316406 156.621094 282.175781 156.761719 282 156.761719 C 281.824219 156.761719 281.679688 156.621094 281.679688 156.445312 C 281.679688 154.894531 280.660156 153.632812 279.40625 153.632812 C 278.148438 153.632812 277.128906 154.894531 277.128906 156.445312 Z M 297.582031 147.410156 L 298.542969 144.027344 C 298.640625 144.042969 298.734375 144.054688 298.835938 144.054688 C 298.902344 144.054688 298.96875 144.050781 299.035156 144.042969 C 299.558594 143.988281 300.03125 143.738281 300.363281 143.328125 C 300.695312 142.925781 300.847656 142.417969 300.792969 141.902344 C 300.683594 140.832031 299.71875 140.046875 298.640625 140.15625 C 298.113281 140.207031 297.640625 140.460938 297.308594 140.867188 C 296.980469 141.273438 296.828125 141.777344 296.878906 142.296875 C 296.949219 142.976562 297.367188 143.539062 297.9375 143.835938 L 296.957031 147.28125 C 296.746094 147.253906 296.527344 147.238281 296.308594 147.238281 L 274.886719 147.238281 C 274.769531 147.238281 274.648438 147.242188 274.53125 147.25 L 273.5625 143.835938 C 274.132812 143.539062 274.546875 142.976562 274.617188 142.296875 C 274.671875 141.777344 274.519531 141.273438 274.1875 140.867188 C 273.855469 140.460938 273.382812 140.207031 272.859375 140.15625 C 271.78125 140.046875 270.8125 140.828125 270.707031 141.902344 C 270.652344 142.417969 270.804688 142.925781 271.132812 143.328125 C 271.464844 143.738281 271.9375 143.988281 272.464844 144.042969 C 272.53125 144.050781 272.597656 144.054688 272.664062 144.054688 C 272.761719 144.054688 272.859375 144.042969 272.957031 144.027344 L 273.894531 147.339844 C 271.734375 147.792969 270.109375 149.703125 270.109375 151.980469 L 270.109375 164.785156 C 270.109375 167.285156 272.085938 169.335938 274.570312 169.476562 L 274.570312 174.605469 C 274.570312 174.816406 274.695312 175.007812 274.886719 175.09375 C 274.957031 175.121094 275.027344 175.136719 275.101562 175.136719 C 275.234375 175.136719 275.363281 175.085938 275.460938 174.996094 L 281.085938 169.816406 C 281.335938 169.601562 281.652344 169.484375 281.980469 169.484375 L 296.308594 169.484375 C 298.941406 169.484375 301.085938 167.355469 301.085938 164.742188 L 301.085938 151.980469 C 301.085938 149.804688 299.601562 147.964844 297.582031 147.410156 " fill-opacity="1" fill-rule="nonzero"/></g></svg>